<svg width="17" height="17" viewBox="0 0 17 17" fill="none" xmlns="http://www.w3.org/2000/svg">
<path d="M17 8.5C17 10.7543 16.1045 12.9163 14.5104 14.5104C12.9163 16.1045 10.7543 17 8.5 17C6.24566 17 4.08365 16.1045 2.48959 14.5104C0.895533 12.9163 0 10.7543 0 8.5C0 6.24566 0.895533 4.08365 2.48959 2.48959C4.08365 0.895533 6.24566 0 8.5 0C10.7543 0 12.9163 0.895533 14.5104 2.48959C16.1045 4.08365 17 6.24566 17 8.5ZM5.68863 4.93637C5.58887 4.83662 5.45357 4.78058 5.3125 4.78058C5.17143 4.78058 5.03613 4.83662 4.93637 4.93637C4.83662 5.03613 4.78058 5.17143 4.78058 5.3125C4.78058 5.45357 4.83662 5.58887 4.93637 5.68863L7.74881 8.5L4.93637 11.3114C4.88698 11.3608 4.8478 11.4194 4.82107 11.4839C4.79434 11.5485 4.78058 11.6176 4.78058 11.6875C4.78058 11.7574 4.79434 11.8265 4.82107 11.8911C4.8478 11.9556 4.88698 12.0142 4.93637 12.0636C5.03613 12.1634 5.17143 12.2194 5.3125 12.2194C5.38235 12.2194 5.45152 12.2057 5.51606 12.1789C5.58059 12.1522 5.63923 12.113 5.68863 12.0636L8.5 9.25119L11.3114 12.0636C11.3608 12.113 11.4194 12.1522 11.4839 12.1789C11.5485 12.2057 11.6176 12.2194 11.6875 12.2194C11.7574 12.2194 11.8265 12.2057 11.8911 12.1789C11.9556 12.1522 12.0142 12.113 12.0636 12.0636C12.113 12.0142 12.1522 11.9556 12.1789 11.8911C12.2057 11.8265 12.2194 11.7574 12.2194 11.6875C12.2194 11.6176 12.2057 11.5485 12.1789 11.4839C12.1522 11.4194 12.113 11.3608 12.0636 11.3114L9.25119 8.5L12.0636 5.68863C12.113 5.63923 12.1522 5.58059 12.1789 5.51606C12.2057 5.45152 12.2194 5.38235 12.2194 5.3125C12.2194 5.24265 12.2057 5.17348 12.1789 5.10894C12.1522 5.04441 12.113 4.98577 12.0636 4.93637C12.0142 4.88698 11.9556 4.8478 11.8911 4.82107C11.8265 4.79434 11.7574 4.78058 11.6875 4.78058C11.6176 4.78058 11.5485 4.79434 11.4839 4.82107C11.4194 4.8478 11.3608 4.88698 11.3114 4.93637L8.5 7.74881L5.68863 4.93637Z" fill="#D0D6DE"/>
</svg>
