<svg width="24" height="24" viewBox="0 0 24 24" fill="none" xmlns="http://www.w3.org/2000/svg">
<g clip-path="url(#clip0_1236_1492)">
<path fill-rule="evenodd" clip-rule="evenodd" d="M11.9966 0.0788579C13.7783 0.0783494 15.5376 0.47725 17.1449 1.24622C18.7522 2.01519 20.1666 3.13468 21.2843 4.52234C22.4019 5.91 23.1943 7.53054 23.6031 9.26478C24.0119 10.999 24.0268 12.8028 23.6466 14.5436C23.2664 16.2843 22.5009 17.9177 21.4063 19.3236C20.3117 20.7295 18.9158 21.8722 17.3214 22.6675C15.727 23.4629 13.9746 23.8907 12.1931 23.9196C10.4115 23.9484 8.64618 23.5776 7.02685 22.8343L1.08514 23.9091C0.936132 23.9358 0.782736 23.9224 0.640547 23.8706C0.498358 23.8187 0.372447 23.73 0.275615 23.6137C0.178783 23.4974 0.114485 23.3575 0.0892588 23.2082C0.0640322 23.059 0.0787767 22.9057 0.131993 22.764L1.83599 18.228C0.729158 16.4215 0.123747 14.3527 0.0820788 12.2345C0.0404111 10.1163 0.563993 8.02521 1.59893 6.17658C2.63386 4.32794 4.14275 2.78851 5.97028 1.71676C7.79781 0.644996 9.87795 0.0796312 11.9966 0.0788579ZM8.57142 12C8.57142 12.4547 8.39081 12.8907 8.06932 13.2122C7.74783 13.5337 7.31179 13.7143 6.85714 13.7143C6.40248 13.7143 5.96644 13.5337 5.64495 13.2122C5.32346 12.8907 5.14285 12.4547 5.14285 12C5.14285 11.5453 5.32346 11.1093 5.64495 10.7878C5.96644 10.4663 6.40248 10.2857 6.85714 10.2857C7.31179 10.2857 7.74783 10.4663 8.06932 10.7878C8.39081 11.1093 8.57142 11.5453 8.57142 12ZM12 13.7143C12.4546 13.7143 12.8907 13.5337 13.2122 13.2122C13.5337 12.8907 13.7143 12.4547 13.7143 12C13.7143 11.5453 13.5337 11.1093 13.2122 10.7878C12.8907 10.4663 12.4546 10.2857 12 10.2857C11.5453 10.2857 11.1093 10.4663 10.7878 10.7878C10.4663 11.1093 10.2857 11.5453 10.2857 12C10.2857 12.4547 10.4663 12.8907 10.7878 13.2122C11.1093 13.5337 11.5453 13.7143 12 13.7143ZM17.1428 13.7143C17.5975 13.7143 18.0335 13.5337 18.355 13.2122C18.6765 12.8907 18.8571 12.4547 18.8571 12C18.8571 11.5453 18.6765 11.1093 18.355 10.7878C18.0335 10.4663 17.5975 10.2857 17.1428 10.2857C16.6882 10.2857 16.2522 10.4663 15.9307 10.7878C15.6092 11.1093 15.4286 11.5453 15.4286 12C15.4286 12.4547 15.6092 12.8907 15.9307 13.2122C16.2522 13.5337 16.6882 13.7143 17.1428 13.7143Z" fill="#FA7268"/>
</g>
<defs>
<clipPath id="clip0_1236_1492">
<rect width="24" height="24" fill="white"/>
</clipPath>
</defs>
</svg>
