<svg width="20" height="20" viewBox="0 0 23 23" fill="none" xmlns="http://www.w3.org/2000/svg">
<g id="material-symbols:work">
<path id="Vector" d="M3.83341 20.125C3.30633 20.125 2.85528 19.9375 2.48025 19.5625C2.10522 19.1875 1.91739 18.7361 1.91675 18.2084V7.66669C1.91675 7.1396 2.10458 6.68855 2.48025 6.31352C2.85591 5.93849 3.30697 5.75066 3.83341 5.75002H7.66675V3.83335C7.66675 3.30627 7.85458 2.85521 8.23025 2.48019C8.60592 2.10516 9.05697 1.91733 9.58341 1.91669H13.4167C13.9438 1.91669 14.3952 2.10452 14.7709 2.48019C15.1465 2.85585 15.3341 3.30691 15.3334 3.83335V5.75002H19.1667C19.6938 5.75002 20.1452 5.93785 20.5209 6.31352C20.8965 6.68919 21.0841 7.14024 21.0834 7.66669V18.2084C21.0834 18.7354 20.8959 19.1868 20.5209 19.5625C20.1458 19.9381 19.6945 20.1257 19.1667 20.125H3.83341ZM9.58341 5.75002H13.4167V3.83335H9.58341V5.75002Z" fill="#9FA4B0"/>
</g>
</svg>
