<svg width="24" height="22" viewBox="0 0 24 22" fill="none" xmlns="http://www.w3.org/2000/svg">
<path d="M12 22C11.6295 21.9995 11.2676 21.8883 10.9616 21.6809C6.4278 18.6244 4.46463 16.5286 3.38181 15.2184C1.07424 12.4254 -0.0305116 9.55797 0.000640591 6.45276C0.0369848 2.89438 2.91164 0 6.40876 0C8.9517 0 10.713 1.42255 11.7387 2.60734C11.7712 2.6445 11.8113 2.67429 11.8564 2.69471C11.9015 2.71512 11.9504 2.72569 12 2.72569C12.0496 2.72569 12.0985 2.71512 12.1436 2.69471C12.1887 2.67429 12.2288 2.6445 12.2613 2.60734C13.287 1.42141 15.0483 0 17.5912 0C21.0884 0 23.963 2.89438 23.9994 6.45333C24.0305 9.55911 22.9246 12.4266 20.6182 15.219C19.5354 16.5292 17.5722 18.6249 13.0384 21.6815C12.7323 21.8887 12.3705 21.9997 12 22Z" fill="#FA7268"/>
</svg>
