<svg width="20" height="20" viewBox="0 0 18 18" fill="none" xmlns="http://www.w3.org/2000/svg">
<path id="Vector" d="M17.6233 6.42852L6.42875 17.6233C6.30936 17.7427 6.16762 17.8375 6.01162 17.9021C5.85562 17.9667 5.68842 18 5.51957 18C5.35071 18 5.18351 17.9667 5.02751 17.9021C4.87151 17.8375 4.72977 17.7427 4.61039 17.6233L0.376655 13.39C0.257243 13.2706 0.162518 13.1289 0.0978906 12.9728C0.0332635 12.8168 0 12.6496 0 12.4807C0 12.3119 0.0332635 12.1447 0.0978906 11.9886C0.162518 11.8326 0.257243 11.6909 0.376655 11.5715L2.72051 9.22742C2.75036 9.19753 2.78581 9.17382 2.82483 9.15764C2.86385 9.14147 2.90567 9.13314 2.94791 9.13314C2.99015 9.13314 3.03197 9.14147 3.07099 9.15764C3.11001 9.17382 3.14545 9.19753 3.1753 9.22742L5.97395 12.0263C6.03645 12.0888 6.11115 12.1377 6.19339 12.17C6.27563 12.2023 6.36365 12.2173 6.45194 12.214C6.54024 12.2108 6.62691 12.1894 6.70656 12.1511C6.78621 12.1129 6.85713 12.0586 6.91487 11.9918C7.02044 11.8644 7.07411 11.7019 7.06517 11.5367C7.05624 11.3715 6.98535 11.2158 6.86666 11.1006L4.08408 8.31775C4.02398 8.25749 3.99022 8.17585 3.99022 8.09074C3.99022 8.00562 4.02398 7.92398 4.08408 7.86372L5.28936 6.65834C5.31921 6.62846 5.35466 6.60475 5.39367 6.58857C5.43269 6.5724 5.47452 6.56407 5.51675 6.56407C5.55899 6.56407 5.60081 6.5724 5.63983 6.58857C5.67885 6.60475 5.7143 6.62846 5.74415 6.65834L8.5428 9.45724C8.60529 9.5197 8.67999 9.56861 8.76223 9.60091C8.84447 9.63321 8.93249 9.6482 9.02079 9.64496C9.10908 9.64172 9.19576 9.62031 9.27541 9.58206C9.35506 9.54382 9.42597 9.48956 9.48372 9.42269C9.58928 9.29533 9.64295 9.13285 9.63402 8.96766C9.62508 8.80247 9.5542 8.64673 9.43551 8.53151L6.65614 5.74627C6.59603 5.68601 6.56228 5.60437 6.56228 5.51925C6.56228 5.43414 6.59603 5.3525 6.65614 5.29224L7.86142 4.08686C7.92167 4.02675 8.0033 3.99299 8.08841 3.99299C8.17352 3.99299 8.25515 4.02675 8.3154 4.08686L11.1141 6.88576C11.1766 6.94835 11.2513 6.99737 11.3336 7.02974C11.4159 7.06212 11.5041 7.07715 11.5925 7.07391C11.6808 7.07066 11.7676 7.04921 11.8473 7.01089C11.9271 6.97257 11.998 6.91821 12.0558 6.8512C12.1612 6.72375 12.2148 6.56121 12.2057 6.39602C12.1966 6.23083 12.1256 6.07514 12.0068 5.96002L9.2274 3.17478C9.16729 3.11453 9.13353 3.03289 9.13353 2.94777C9.13353 2.86266 9.16729 2.78102 9.2274 2.72076L11.5713 0.376689C11.6906 0.257266 11.8324 0.162532 11.9884 0.0978994C12.1444 0.0332664 12.3116 0 12.4804 0C12.6493 0 12.8165 0.0332664 12.9725 0.0978994C13.1285 0.162532 13.2702 0.257266 13.3896 0.376689L17.6233 4.60999C17.7428 4.72939 17.8375 4.87114 17.9021 5.02715C17.9667 5.18317 18 5.35038 18 5.51925C18 5.68813 17.9667 5.85534 17.9021 6.01135C17.8375 6.16737 17.7428 6.30912 17.6233 6.42852Z" fill="#9FA4B0"/>
</svg>
