<svg width="23" height="20" viewBox="0 0 21 16" fill="none" xmlns="http://www.w3.org/2000/svg">
<path id="Vector" d="M20.2835 12.1393L18.6048 3.69498C18.224 2.04 17.6165 0.782867 14.8235 0.782867H5.97194C3.136 0.782867 2.57139 2.04 2.19069 3.69498L0.514909 12.1393C0.214128 13.5387 0.70526 14.6515 1.94878 15.0846C3.19229 15.5177 4.16725 14.8512 4.86249 13.551L5.52507 12.2992C5.58245 12.1909 5.67018 12.0999 5.7785 12.0363C5.88682 11.9728 6.0115 11.9391 6.13866 11.9391H14.6585C14.7857 11.9391 14.9103 11.9728 15.0187 12.0363C15.127 12.0999 15.2147 12.1909 15.2721 12.2992L15.9347 13.551C16.6282 14.8512 17.6053 15.5198 18.8484 15.0846C20.0915 14.6494 20.5813 13.5387 20.2835 12.1393ZM9.36647 7.34537H7.30397V9.31412H5.92897V7.34537H3.86647V6.03287H5.92897V4.06412H7.30397V6.03287H9.36647V7.34537ZM12.2883 7.50943C12.1184 7.50943 11.9522 7.46132 11.8109 7.37118C11.6696 7.28105 11.5594 7.15293 11.4944 7.00304C11.4293 6.85315 11.4123 6.68821 11.4455 6.52908C11.4786 6.36996 11.5605 6.22379 11.6807 6.10907C11.8009 5.99435 11.954 5.91622 12.1207 5.88457C12.2874 5.85291 12.4602 5.86916 12.6172 5.93125C12.7742 5.99334 12.9085 6.09848 13.0029 6.23338C13.0973 6.36828 13.1477 6.52688 13.1477 6.68912C13.1477 6.90668 13.0572 7.11533 12.896 7.26917C12.7349 7.423 12.5163 7.50943 12.2883 7.50943ZM14.179 9.31412C14.009 9.31412 13.8429 9.26601 13.7015 9.17587C13.5602 9.08573 13.4501 8.95762 13.385 8.80772C13.32 8.65783 13.3029 8.4929 13.3361 8.33377C13.3693 8.17465 13.4511 8.02848 13.5713 7.91376C13.6915 7.79903 13.8446 7.72091 14.0113 7.68925C14.178 7.6576 14.3508 7.67385 14.5078 7.73594C14.6649 7.79802 14.7991 7.90316 14.8935 8.03806C14.9879 8.17296 15.0383 8.33156 15.0383 8.4938C15.0383 8.71137 14.9478 8.92002 14.7866 9.07385C14.6255 9.22769 14.4069 9.31412 14.179 9.31412ZM14.179 5.70474C14.009 5.70474 13.8429 5.65663 13.7015 5.56649C13.5602 5.47636 13.4501 5.34824 13.385 5.19835C13.32 5.04846 13.3029 4.88352 13.3361 4.72439C13.3693 4.56527 13.4511 4.4191 13.5713 4.30438C13.6915 4.18966 13.8446 4.11153 14.0113 4.07988C14.178 4.04823 14.3508 4.06447 14.5078 4.12656C14.6649 4.18865 14.7991 4.29379 14.8935 4.42869C14.9879 4.56359 15.0383 4.72219 15.0383 4.88443C15.0383 5.10199 14.9478 5.31064 14.7866 5.46448C14.6255 5.61832 14.4069 5.70474 14.179 5.70474ZM16.0696 7.50943C15.8996 7.50943 15.7335 7.46132 15.5922 7.37118C15.4508 7.28105 15.3407 7.15293 15.2756 7.00304C15.2106 6.85315 15.1936 6.68821 15.2267 6.52908C15.2599 6.36996 15.3417 6.22379 15.4619 6.10907C15.5821 5.99435 15.7352 5.91622 15.9019 5.88457C16.0686 5.85291 16.2414 5.86916 16.3985 5.93125C16.5555 5.99334 16.6897 6.09848 16.7841 6.23338C16.8786 6.36828 16.929 6.52688 16.929 6.68912C16.929 6.90668 16.8384 7.11533 16.6773 7.26917C16.5161 7.423 16.2975 7.50943 16.0696 7.50943Z" fill="#9FA4B0"/>
</svg>
