<svg width="19" height="20" viewBox="0 0 17 20" fill="none" xmlns="http://www.w3.org/2000/svg">
<g id="Group">
<path id="Vector" d="M8.09035 1.8714C10.236 1.8714 12.2938 2.72377 13.8111 4.24101C15.3283 5.75824 16.1807 7.81605 16.1807 9.96174C16.1807 12.725 14.6741 14.9867 13.0866 16.6093C12.2934 17.4112 11.428 18.1382 10.5013 18.7811L10.1183 19.0418L9.93854 19.1614L9.59964 19.3771L9.29761 19.5614L8.92365 19.7789C8.66982 19.9238 8.38261 20 8.09035 20C7.79808 20 7.51087 19.9238 7.25704 19.7789L6.88309 19.5614L6.41564 19.2737L6.24305 19.1614L5.87449 18.916C4.87473 18.2395 3.94351 17.467 3.09411 16.6093C1.5066 14.9858 0 12.725 0 9.96174C0 7.81605 0.852373 5.75824 2.36961 4.24101C3.88684 2.72377 5.94465 1.8714 8.09035 1.8714ZM8.09035 7.26496C7.7362 7.26496 7.38552 7.33472 7.05833 7.47024C6.73114 7.60577 6.43385 7.80441 6.18343 8.05483C5.93301 8.30525 5.73437 8.60254 5.59884 8.92973C5.46332 9.25692 5.39356 9.6076 5.39356 9.96174C5.39356 10.3159 5.46332 10.6666 5.59884 10.9938C5.73437 11.3209 5.93301 11.6182 6.18343 11.8687C6.43385 12.1191 6.73114 12.3177 7.05833 12.4532C7.38552 12.5888 7.7362 12.6585 8.09035 12.6585C8.80558 12.6585 9.49151 12.3744 9.99726 11.8687C10.503 11.3629 10.7871 10.677 10.7871 9.96174C10.7871 9.24651 10.503 8.56058 9.99726 8.05483C9.49151 7.54909 8.80558 7.26496 8.09035 7.26496Z" fill="#9FA4B0"/>
</g>
</svg>
