<svg width="31" height="35" viewBox="0 0 31 35" fill="none" xmlns="http://www.w3.org/2000/svg">
<g id="Frame 568 1">
<path id="Vector" d="M18.1724 17.5C18.1724 27.165 14.4633 35 9.88788 35C5.31249 35 1.60339 27.165 1.60339 17.5C1.60339 7.83499 5.31249 0 9.88788 0C14.4633 0 18.1724 7.83499 18.1724 17.5Z" fill="white"/>
<path id="Vector_2" d="M31 17.5C31 27.165 27.2909 35 22.7155 35C18.1401 35 14.431 27.165 14.431 17.5C14.431 7.83499 18.1401 0 22.7155 0C27.2909 0 31 7.83499 31 17.5Z" fill="white"/>
<path id="Vector_3" d="M7 21C9.20914 21 11 19.2091 11 17C11 14.7909 9.20914 13 7 13C4.79086 13 3 14.7909 3 17C3 19.2091 4.79086 21 7 21Z" fill="#FF7664"/>
<path id="Vector_4" d="M8.28451 16.1539C8.72729 16.1539 9.08624 15.7922 9.08624 15.3462C9.08624 14.9001 8.72729 14.5385 8.28451 14.5385C7.84173 14.5385 7.48279 14.9001 7.48279 15.3462C7.48279 15.7922 7.84173 16.1539 8.28451 16.1539Z" fill="white"/>
<path id="Vector_5" d="M19.5086 21C21.7225 21 23.5172 19.1919 23.5172 16.9615C23.5172 14.7312 21.7225 12.9231 19.5086 12.9231C17.2947 12.9231 15.5 14.7312 15.5 16.9615C15.5 19.1919 17.2947 21 19.5086 21Z" fill="#FF7664"/>
<path id="Vector_6" d="M20.5776 16.1539C21.0204 16.1539 21.3793 15.7922 21.3793 15.3462C21.3793 14.9001 21.0204 14.5385 20.5776 14.5385C20.1348 14.5385 19.7759 14.9001 19.7759 15.3462C19.7759 15.7922 20.1348 16.1539 20.5776 16.1539Z" fill="white"/>
</g>
</svg>
