<svg width="24" height="20" viewBox="0 0 22 18" fill="none" xmlns="http://www.w3.org/2000/svg">
<path id="Vector" d="M12.0725 0.168811C12.1825 0.0985003 12.2994 0.0527986 12.4163 0.0246744C12.5778 -0.0104807 12.7463 -0.00696523 12.9009 0.02819C13.1656 0.0914693 13.4097 0.256699 13.5678 0.5063L17.6894 6.8272C17.9919 7.28773 18.15 7.83264 18.15 8.38809V10.972C18.15 11.2146 18.3013 11.429 18.5247 11.5064L21.2472 12.4345C21.6975 12.5856 22 13.0145 22 13.4997V16.8746C22 17.2226 21.8419 17.553 21.5703 17.7675C21.2987 17.9819 20.9481 18.0522 20.6181 17.9608L14.8156 16.3789C12.8906 15.8551 11.55 14.0692 11.55 12.0302V7.87483C11.55 7.25258 12.0416 6.74986 12.65 6.74986C13.2584 6.74986 13.75 7.25258 13.75 7.87483V10.6872C13.75 10.9966 13.9975 11.2497 14.3 11.2497C14.6025 11.2497 14.85 10.9966 14.85 10.6872V7.70257C14.85 7.45648 14.7881 7.21742 14.6678 7.00649L11.6978 1.69103C11.6394 1.58556 11.5981 1.47658 11.5741 1.36409C11.5397 1.19886 11.5397 1.0266 11.5775 0.868399C11.6428 0.587157 11.8113 0.33404 12.0691 0.168811H12.0725ZM9.9275 0.168811C10.1853 0.330525 10.3538 0.587157 10.4191 0.868399C10.4569 1.03011 10.4603 1.19886 10.4225 1.36409C10.3984 1.47658 10.3572 1.58556 10.2988 1.69103L7.33219 7.00649C7.21188 7.21742 7.15 7.46 7.15 7.70257V10.6872C7.15 10.9966 7.3975 11.2497 7.7 11.2497C8.0025 11.2497 8.25 10.9966 8.25 10.6872V7.87483C8.25 7.25258 8.74156 6.74986 9.35 6.74986C9.95844 6.74986 10.45 7.25258 10.45 7.87483V12.0302C10.45 14.0692 9.10938 15.8515 7.18438 16.3789L1.38531 17.9608C1.05531 18.0522 0.70125 17.9784 0.433125 17.7675C0.165 17.5566 0 17.2261 0 16.8746V13.4997C0 13.0145 0.3025 12.5856 0.752813 12.4309L3.47531 11.5028C3.69875 11.4255 3.85 11.2111 3.85 10.9685V8.38458C3.85 7.82912 4.01156 7.28773 4.31063 6.82369L8.42875 0.509816C8.58687 0.260214 8.83094 0.0949848 9.09563 0.0317055C9.25375 -0.00696523 9.41875 -0.0104807 9.58031 0.02819C9.70063 0.0563141 9.8175 0.102016 9.92406 0.172326L9.9275 0.168811Z" fill="#9FA4B0"/>
</svg>
