<svg width="23" height="20" viewBox="0 0 22 18" fill="none" xmlns="http://www.w3.org/2000/svg">
<g id="Group">
<path id="Vector" d="M10.3376 0.0152864C9.51271 0.174405 8.75061 0.588953 8.23976 1.15425C7.05892 2.47326 7.08405 4.5125 8.29838 5.79802C8.96417 6.50149 9.68439 6.84486 10.6475 6.92442C11.0034 6.95373 11.0076 6.95373 11.0076 7.06679C11.0076 7.25522 11.1709 7.73257 11.3551 8.09269C11.6064 8.58261 12.1507 9.1144 12.6616 9.3782C13.5074 9.81369 14.3449 9.89325 15.1614 9.61688L15.4085 9.53314L15.6053 9.67969C16.024 9.98537 16.6731 10.2492 17.2258 10.3329C17.5943 10.3915 17.6236 10.4125 18.7626 11.5891C19.3739 12.2214 19.6963 12.5229 19.7927 12.5564C19.9769 12.6192 20.1863 12.5732 20.3496 12.4392C20.5924 12.234 20.5966 12.1963 20.5966 10.5423V9.03065L20.7599 8.81291C20.9819 8.51561 21.1619 8.14712 21.2959 7.70745C21.3922 7.38503 21.4048 7.26359 21.409 6.75273C21.409 6.267 21.3964 6.10788 21.3169 5.81477C20.9316 4.39107 19.8722 3.36936 18.503 3.0888C18.1596 3.0218 18.147 3.01343 18.1345 2.89618C18.08 2.40208 17.7869 1.74466 17.4352 1.31755C17.1295 0.949065 16.8071 0.697824 16.3465 0.471707C15.7854 0.191154 15.5299 0.13672 14.839 0.140906C14.3198 0.140906 14.2151 0.157656 13.9178 0.253965C13.7336 0.316775 13.453 0.442396 13.2939 0.534517C13.139 0.626639 13.0008 0.702012 12.9882 0.702012C12.9798 0.702012 12.8877 0.643389 12.783 0.572204C12.5318 0.400522 12.0461 0.174405 11.7404 0.0906582C11.4933 0.0236607 10.5637 -0.0265875 10.3376 0.0152864Z" fill="#9FA4B0"/>
<path id="Vector_2" d="M0.392795 14.2858C0.221113 14.3611 0.0452446 14.5747 0.0159331 14.7422C0.00337108 14.8176 -0.00500363 15.4875 0.00337108 16.2371C0.0159331 17.598 0.0159331 17.598 0.11643 17.7403C0.300673 17.9958 0.296486 17.9958 2.42366 17.9958H4.34984V16.1114V14.2271H2.43622C0.93715 14.2313 0.489104 14.2439 0.392795 14.2858Z" fill="#9FA4B0"/>
<path id="Vector_3" d="M5.6062 16.1114V17.9958H11.636H17.6658V16.1114V14.2271H11.636H5.6062V16.1114Z" fill="#9FA4B0"/>
<path id="Vector_4" d="M18.9219 16.1114V17.9999L19.9855 17.9874C21.1747 17.9748 21.1914 17.9706 21.3589 17.6608C21.4301 17.5226 21.4343 17.4137 21.4259 16.0821C21.4133 14.7129 21.4092 14.6459 21.3254 14.537C21.1119 14.2481 21.116 14.2481 19.9645 14.2355L18.9219 14.2229V16.1114Z" fill="#9FA4B0"/>
</g>
</svg>
