<svg width="12" height="20" viewBox="0 0 8 18" fill="none" xmlns="http://www.w3.org/2000/svg">
<g id="free-icon-ink-2579152 (1) 1" clip-path="url(#clip0_1080_321)">
<g id="Group">
<path id="Vector" d="M3.50313 0.0738282C3.27461 0.193359 3.25 0.291797 3.07422 1.75078C2.98633 2.47148 2.91602 3.09375 2.91602 3.13242C2.91602 3.1957 2.95469 3.19922 4.28711 3.19922C5.57031 3.19922 5.6582 3.1957 5.6582 3.13594C5.6582 3.1043 5.58437 2.475 5.49648 1.74023C5.31719 0.270703 5.29609 0.189844 5.06055 0.0632813C4.95508 0.00703144 4.85664 0 4.28711 0C3.70703 0.00351572 3.62266 0.0105469 3.50313 0.0738282Z" fill="#9FA4B0"/>
<path id="Vector_2" d="M1.92461 4.32773C1.7207 4.4332 1.65039 4.60547 1.65039 4.99219V5.30859H4.28711H6.92383V4.99219C6.92383 4.59844 6.85352 4.4332 6.64258 4.32422C6.50898 4.25742 6.44219 4.25391 4.28008 4.25391C2.13555 4.25742 2.05117 4.26094 1.92461 4.32773Z" fill="#9FA4B0"/>
<path id="Vector_3" d="M0.869922 6.43711C0.789062 6.4793 0.708203 6.56016 0.666016 6.64453C0.599219 6.77813 0.595703 6.84844 0.595703 9.21094V11.6367H1.65039H2.70508V10.793C2.70508 9.82617 2.72266 9.74883 2.9793 9.60469C3.11641 9.52734 3.14102 9.52734 4.28359 9.52734C5.38398 9.52734 5.45781 9.53086 5.58789 9.59766C5.6793 9.64336 5.75312 9.71719 5.79883 9.80859C5.86211 9.93516 5.86914 10.0125 5.86914 10.793V11.6367H6.92383H7.97852V9.21094C7.97852 6.84492 7.975 6.77813 7.9082 6.64453C7.8625 6.55312 7.78867 6.4793 7.69727 6.43359C7.56367 6.36328 7.50039 6.36328 4.28008 6.36328C1.08437 6.3668 0.996484 6.3668 0.869922 6.43711Z" fill="#9FA4B0"/>
<path id="Vector_4" d="M3.75977 12.1641V13.7461H4.28711H4.81445V12.1641V10.582H4.28711H3.75977V12.1641Z" fill="#9FA4B0"/>
<path id="Vector_5" d="M0.595703 15.1348C0.595703 17.5184 0.599219 17.5852 0.666016 17.7188C0.711719 17.8102 0.785547 17.884 0.876953 17.9297C1.01055 18 1.07734 18 4.28711 18C7.49687 18 7.56367 18 7.69727 17.9297C7.78867 17.884 7.8625 17.8102 7.9082 17.7188C7.975 17.5852 7.97852 17.5184 7.97852 15.1348V12.6914H6.92383H5.86914V13.5352C5.86914 14.3156 5.86211 14.393 5.79883 14.5195C5.75312 14.6109 5.6793 14.6848 5.58789 14.7305C5.45781 14.7973 5.38398 14.8008 4.28359 14.8008C2.63125 14.8008 2.70508 14.8605 2.70508 13.5352V12.6914H1.65039H0.595703V15.1348Z" fill="#9FA4B0"/>
</g>
</g>
<defs>
<clipPath id="clip0_1080_321">
<rect width="7" height="18" fill="white" transform="translate(0.428955)"/>
</clipPath>
</defs>
</svg>
