<svg width="27" height="27" viewBox="0 0 27 27" fill="none" xmlns="http://www.w3.org/2000/svg">
<path d="M16.0144 21.375C16.9875 21.375 17.5016 22.527 16.8525 23.2515C16.4305 23.7229 15.9137 24.1001 15.3361 24.3583C14.7584 24.6165 14.1328 24.75 13.5 24.75C12.8672 24.75 12.2416 24.6165 11.6639 24.3583C11.0863 24.1001 10.5695 23.7229 10.1475 23.2515C9.5265 22.5585 9.96975 21.4751 10.8608 21.3829L10.9845 21.3761L16.0144 21.375ZM13.5 2.25C15.0278 2.25 16.3193 3.26587 16.7344 4.65862L16.7861 4.851L16.7951 4.89937C18.0355 5.5988 19.0924 6.58222 19.8793 7.76902C20.6662 8.95582 21.1607 10.3122 21.3221 11.727L21.3536 12.0499L21.375 12.375V15.6724L21.3986 15.8254C21.5527 16.6543 22.0114 17.3956 22.6845 17.9032L22.8724 18.0349L23.0546 18.1462C24.0221 18.6941 23.6846 20.133 22.6305 20.2432L22.5 20.25H4.5C3.3435 20.25 2.93963 18.7155 3.94538 18.1462C4.37404 17.9037 4.7444 17.5702 5.03048 17.1693C5.31656 16.7683 5.51142 16.3096 5.60138 15.8254L5.625 15.6645L5.62613 12.3233C5.69472 10.8539 6.12243 9.42369 6.87182 8.1579C7.62121 6.89212 8.66944 5.82931 9.92475 5.0625L10.2038 4.89825L10.215 4.84987C10.3737 4.17693 10.7352 3.56896 11.2507 3.1082C11.7662 2.64744 12.4108 2.35611 13.0973 2.27362L13.302 2.2545L13.5 2.25Z" fill="#303030"/>
</svg>
