<svg xmlns="http://www.w3.org/2000/svg" width="19" height="19" viewBox="0 0 19 19" fill="none">
  <path d="M11.536 3.02782L15.9722 7.46402M1 18H5.4362L17.0812 6.35497C17.3725 6.06368 17.6036 5.71788 17.7612 5.3373C17.9189 4.95671 18 4.54881 18 4.13687C18 3.72493 17.9189 3.31702 17.7612 2.93644C17.6036 2.55586 17.3725 2.21005 17.0812 1.91877C16.7899 1.62748 16.4441 1.39642 16.0636 1.23878C15.683 1.08114 15.2751 1 14.8631 1C14.4512 1 14.0433 1.08114 13.6627 1.23878C13.2821 1.39642 12.9363 1.62748 12.645 1.91877L1 13.5638V18Z" stroke="#FA7268" stroke-width="1.7" stroke-linecap="round" stroke-linejoin="round"/>
</svg>