<svg width="27" height="27" viewBox="0 0 27 27" fill="none" xmlns="http://www.w3.org/2000/svg">
<path d="M13.5 2.25C7.27875 2.25 2.25 7.3125 2.25 13.5C2.25 16.4837 3.43526 19.3452 5.54505 21.455C6.58971 22.4996 7.8299 23.3283 9.19481 23.8936C10.5597 24.459 12.0226 24.75 13.5 24.75C16.4837 24.75 19.3452 23.5647 21.455 21.455C23.5647 19.3452 24.75 16.4837 24.75 13.5C24.75 12.0226 24.459 10.5597 23.8936 9.19481C23.3283 7.8299 22.4996 6.58971 21.455 5.54505C20.4103 4.50039 19.1701 3.67172 17.8052 3.10636C16.4403 2.54099 14.9774 2.25 13.5 2.25ZM17.4375 9C17.8851 9 18.3143 9.17779 18.6307 9.49426C18.9472 9.81072 19.125 10.2399 19.125 10.6875C19.125 11.1351 18.9472 11.5643 18.6307 11.8807C18.3143 12.1972 17.8851 12.375 17.4375 12.375C16.9899 12.375 16.5607 12.1972 16.2443 11.8807C15.9278 11.5643 15.75 11.1351 15.75 10.6875C15.75 10.2399 15.9278 9.81072 16.2443 9.49426C16.5607 9.17779 16.9899 9 17.4375 9ZM9.5625 9C10.0101 9 10.4393 9.17779 10.7557 9.49426C11.0722 9.81072 11.25 10.2399 11.25 10.6875C11.25 11.1351 11.0722 11.5643 10.7557 11.8807C10.4393 12.1972 10.0101 12.375 9.5625 12.375C9.11495 12.375 8.68572 12.1972 8.36926 11.8807C8.05279 11.5643 7.875 11.1351 7.875 10.6875C7.875 10.2399 8.05279 9.81072 8.36926 9.49426C8.68572 9.17779 9.11495 9 9.5625 9ZM13.5 19.6875C10.8787 19.6875 8.65125 18.045 7.75125 15.75H19.2488C18.3375 18.045 16.1213 19.6875 13.5 19.6875Z" fill="#303030"/>
</svg>
