<svg width="27" height="27" viewBox="0 0 27 27" fill="none" xmlns="http://www.w3.org/2000/svg">
<path fill-rule="evenodd" clip-rule="evenodd" d="M20.6437 2.25C21.5224 2.25 22.3954 2.77875 22.6969 3.71813L22.7824 3.99488L22.8712 4.30988L22.9612 4.66537L23.0479 5.05463L23.13 5.47762L23.1682 5.70037L23.2369 6.1695C23.4956 8.18325 23.4135 10.9283 21.9746 13.7126L21.7957 14.0468C20.286 16.7636 20.3951 19.4985 20.736 21.2749L20.8192 21.6675L20.862 21.8498L20.9486 22.1873L21.0352 22.482C21.3435 23.4832 20.6775 24.6442 19.5424 24.7432L19.3849 24.75H6.35624C5.47874 24.75 4.60461 24.2213 4.30311 23.2819L4.21874 23.0051L4.12874 22.6901L4.03874 22.3346L3.95211 21.9454L3.86999 21.5224C3.84299 21.3761 3.81824 21.225 3.79574 21.069L3.73386 20.5853L3.68661 20.0745C3.54374 18.1575 3.75974 15.7376 5.02536 13.2874L5.20424 12.9532C6.71399 10.2375 6.60374 7.5015 6.26399 5.72625L6.18186 5.33363L6.13799 5.15138L6.05136 4.81387L5.96474 4.51913C5.65649 3.51788 6.32249 2.35687 7.45761 2.25787L7.61624 2.25H20.6437ZM13.5 13.5H10.125C9.82662 13.5 9.54047 13.6185 9.32949 13.8295C9.11852 14.0405 8.99999 14.3266 8.99999 14.625C8.99999 14.9234 9.11852 15.2095 9.32949 15.4205C9.54047 15.6315 9.82662 15.75 10.125 15.75H13.5C13.7984 15.75 14.0845 15.6315 14.2955 15.4205C14.5065 15.2095 14.625 14.9234 14.625 14.625C14.625 14.3266 14.5065 14.0405 14.2955 13.8295C14.0845 13.6185 13.7984 13.5 13.5 13.5ZM18 9H11.25C10.9632 9.00032 10.6875 9.11011 10.4789 9.30695C10.2704 9.50379 10.145 9.77282 10.1282 10.0591C10.1114 10.3453 10.2045 10.6272 10.3885 10.8471C10.5726 11.0669 10.8336 11.2083 11.1184 11.2421L11.25 11.25H18C18.2867 11.2497 18.5625 11.1399 18.771 10.943C18.9795 10.7462 19.105 10.4772 19.1218 10.1909C19.1386 9.90468 19.0455 9.62282 18.8614 9.40294C18.6774 9.18305 18.4163 9.04174 18.1316 9.00787L18 9Z" fill="#303030"/>
</svg>
