<svg width="28" height="28" viewBox="0 0 28 28" fill="none" xmlns="http://www.w3.org/2000/svg">
<path d="M13.9997 2.3335C20.4432 2.3335 25.6663 7.55666 25.6663 14.0002C25.6663 20.4437 20.4432 25.6668 13.9997 25.6668C7.55618 25.6668 2.33301 20.4437 2.33301 14.0002C2.33301 7.55666 7.55618 2.3335 13.9997 2.3335ZM13.9997 18.6668C13.6903 18.6668 13.3935 18.7897 13.1747 19.0085C12.9559 19.2273 12.833 19.5241 12.833 19.8335C12.833 20.1429 12.9559 20.4397 13.1747 20.6585C13.3935 20.8772 13.6903 21.0002 13.9997 21.0002C14.3091 21.0002 14.6058 20.8772 14.8246 20.6585C15.0434 20.4397 15.1663 20.1429 15.1663 19.8335C15.1663 19.5241 15.0434 19.2273 14.8246 19.0085C14.6058 18.7897 14.3091 18.6668 13.9997 18.6668ZM13.9997 7.5835C12.878 7.5835 11.8023 8.02907 11.0092 8.82219C10.2161 9.61531 9.77051 10.691 9.77051 11.8127C9.77051 12.1221 9.89342 12.4188 10.1122 12.6376C10.331 12.8564 10.6278 12.9793 10.9372 12.9793C11.2466 12.9793 11.5433 12.8564 11.7621 12.6376C11.9809 12.4188 12.1038 12.1221 12.1038 11.8127C12.1042 11.4685 12.1983 11.131 12.3759 10.8363C12.5535 10.5415 12.808 10.3007 13.1121 10.1396C13.4162 9.97846 13.7584 9.90315 14.102 9.92172C14.4456 9.94029 14.7777 10.052 15.0626 10.245C15.3476 10.4379 15.5746 10.7048 15.7195 11.017C15.8643 11.3291 15.9214 11.6748 15.8847 12.017C15.848 12.3592 15.7188 12.6849 15.5111 12.9592C15.3034 13.2336 15.0249 13.4462 14.7055 13.5743C13.9168 13.8893 12.833 14.6967 12.833 16.0418V16.3335C12.833 16.6429 12.9559 16.9397 13.1747 17.1585C13.3935 17.3772 13.6903 17.5002 13.9997 17.5002C14.3091 17.5002 14.6058 17.3772 14.8246 17.1585C15.0434 16.9397 15.1663 16.6429 15.1663 16.3335C15.1663 16.0488 15.2247 15.9065 15.4708 15.7852L15.5723 15.7385C16.4833 15.372 17.2384 14.7001 17.7082 13.8379C18.178 12.9757 18.3333 11.9769 18.1473 11.0128C17.9614 10.0486 17.4459 9.17922 16.6891 8.55355C15.9324 7.92787 14.9816 7.58493 13.9997 7.5835Z" fill="#303030"/>
</svg>
