<svg width="27" height="27" viewBox="0 0 27 27" fill="none" xmlns="http://www.w3.org/2000/svg">
<path fill-rule="evenodd" clip-rule="evenodd" d="M12.7103 2.46933C13.2195 2.27845 13.7805 2.27845 14.2897 2.46933L22.1647 5.42245C22.5937 5.58325 22.9634 5.87116 23.2243 6.2477C23.4853 6.62424 23.6251 7.07146 23.625 7.52958V13.563C23.625 15.4433 23.1015 17.2865 22.1129 18.8861C21.1244 20.4856 19.71 21.7783 18.0281 22.6192L14.2549 24.5047C14.0205 24.6219 13.7621 24.683 13.5 24.683C13.2379 24.683 12.9795 24.6219 12.7451 24.5047L8.97188 22.6181C7.29004 21.7771 5.87561 20.4845 4.88708 18.8849C3.89854 17.2854 3.37496 15.4422 3.375 13.5618V7.5307C3.37471 7.07239 3.51439 6.62492 3.77535 6.24816C4.03631 5.8714 4.4061 5.58332 4.83525 5.42245L12.7103 2.46933ZM14.625 13.1985C15.0539 12.9508 15.3891 12.5685 15.5787 12.1109C15.7682 11.6533 15.8014 11.146 15.6732 10.6676C15.545 10.1892 15.2626 9.76645 14.8697 9.46493C14.4767 9.16342 13.9953 8.99997 13.5 8.99995C13.0047 8.99997 12.5233 9.16342 12.1304 9.46493C11.7374 9.76645 11.455 10.1892 11.3268 10.6676C11.1986 11.146 11.2318 11.6533 11.4213 12.1109C11.6109 12.5685 11.9461 12.9508 12.375 13.1985V16.875C12.375 17.1733 12.4935 17.4595 12.7045 17.6704C12.9155 17.8814 13.2016 18 13.5 18C13.7984 18 14.0845 17.8814 14.2955 17.6704C14.5065 17.4595 14.625 17.1733 14.625 16.875V13.1985Z" fill="#303030"/>
</svg>
