<svg width="14" height="15" viewBox="0 0 16 18" fill="none" xmlns="http://www.w3.org/2000/svg">
<g id="Group">
<path id="Vector" d="M6.37147 0.5409C6.75479 0.2691 7.27439 0 7.84301 0C8.41163 0 8.93123 0.2691 9.31456 0.5409C9.73024 0.8352 10.1342 1.2366 10.4881 1.7064C10.6685 1.9458 10.8371 2.2068 10.9939 2.4894C11.8892 2.0645 12.8743 1.82314 13.8812 1.782C14.987 1.7343 15.686 2.5884 15.686 3.4182V5.4C15.6862 7.1538 14.9891 8.84737 13.7255 10.1628C12.4619 11.4782 10.7188 12.325 8.82339 12.5442V15.3072C9.87827 14.7051 11.4332 13.9986 13.488 13.527C13.6137 13.496 13.7449 13.4884 13.8739 13.5044C14.0029 13.5205 14.1271 13.56 14.2392 13.6206C14.3514 13.6812 14.4493 13.7617 14.5273 13.8574C14.6052 13.9531 14.6616 14.0621 14.6932 14.178C14.7247 14.2939 14.7308 14.4144 14.7111 14.5325C14.6914 14.6506 14.6463 14.764 14.5784 14.8659C14.5105 14.9678 14.4211 15.0563 14.3155 15.1262C14.21 15.1961 14.0903 15.246 13.9635 15.273C10.8087 15.9975 9.02633 17.334 8.62045 17.6652C8.39202 17.8524 8.16556 18 7.84301 18C7.52439 18 7.29792 17.856 7.07146 17.6697C6.67833 17.3475 4.89502 16.0011 1.72252 15.273C1.59684 15.245 1.47845 15.1944 1.37416 15.1242C1.26987 15.054 1.18174 14.9655 1.11486 14.8639C1.04797 14.7622 1.00365 14.6495 0.984451 14.5321C0.965248 14.4146 0.971543 14.2949 1.00297 14.1797C1.0344 14.0646 1.09034 13.9562 1.16758 13.861C1.24481 13.7658 1.3418 13.6855 1.45298 13.6248C1.56415 13.5641 1.6873 13.5243 1.81533 13.5075C1.94337 13.4907 2.07376 13.4973 2.19898 13.527C4.25287 13.9986 5.80677 14.706 6.86264 15.3072V12.5442C4.96719 12.325 3.22408 11.4782 1.96051 10.1628C0.696947 8.84737 -0.000178128 7.1538 3.4141e-08 5.4V3.4056C3.4141e-08 2.5875 0.678421 1.7406 1.77154 1.7676C2.49114 1.7856 3.58916 1.9188 4.71267 2.4543C4.86169 2.1861 5.02639 1.935 5.19796 1.7073C5.55089 1.2366 5.95579 0.8343 6.37147 0.5409Z" fill="#D2D2D2"/>
</g>
</svg>
