<svg width="16" height="15" viewBox="0 0 19 18" fill="none" xmlns="http://www.w3.org/2000/svg">
<path id="Vector" d="M9.68604 0C4.70903 0 0.686035 4.05 0.686035 9C0.686035 11.3869 1.63425 13.6761 3.32207 15.364C4.1578 16.1997 5.14995 16.8626 6.24188 17.3149C7.33381 17.7672 8.50414 18 9.68604 18C12.073 18 14.3622 17.0518 16.05 15.364C17.7378 13.6761 18.686 11.3869 18.686 9C18.686 7.8181 18.4532 6.64778 18.001 5.55585C17.5487 4.46392 16.8857 3.47177 16.05 2.63604C15.2143 1.80031 14.2221 1.13738 13.1302 0.685084C12.0383 0.232792 10.8679 0 9.68604 0ZM12.836 5.4C13.1941 5.4 13.5375 5.54223 13.7906 5.79541C14.0438 6.04858 14.186 6.39196 14.186 6.75C14.186 7.10804 14.0438 7.45142 13.7906 7.70459C13.5375 7.95777 13.1941 8.1 12.836 8.1C12.478 8.1 12.1346 7.95777 11.8814 7.70459C11.6283 7.45142 11.486 7.10804 11.486 6.75C11.486 6.39196 11.6283 6.04858 11.8814 5.79541C12.1346 5.54223 12.478 5.4 12.836 5.4ZM6.53604 5.4C6.89408 5.4 7.23745 5.54223 7.49063 5.79541C7.7438 6.04858 7.88603 6.39196 7.88603 6.75C7.88603 7.10804 7.7438 7.45142 7.49063 7.70459C7.23745 7.95777 6.89408 8.1 6.53604 8.1C6.17799 8.1 5.83462 7.95777 5.58144 7.70459C5.32827 7.45142 5.18604 7.10804 5.18604 6.75C5.18604 6.39196 5.32827 6.04858 5.58144 5.79541C5.83462 5.54223 6.17799 5.4 6.53604 5.4ZM9.68604 13.95C7.58904 13.95 5.80703 12.636 5.08703 10.8H14.285C13.556 12.636 11.783 13.95 9.68604 13.95Z" fill="#D2D2D2"/>
</svg>
