<svg width="15" height="15" viewBox="0 0 16 16" fill="none" xmlns="http://www.w3.org/2000/svg">
<g id="Frame 438">
<path id="Star 1" d="M7.59031 0.585609C7.78935 0.301105 8.21065 0.301104 8.40969 0.585609L9.71444 2.4506C9.83502 2.62296 10.0506 2.70142 10.2537 2.64689L12.452 2.0569C12.7874 1.9669 13.1101 2.23771 13.0797 2.58359L12.8804 4.85094C12.862 5.06048 12.9767 5.25914 13.1674 5.34796L15.2306 6.30904C15.5454 6.45565 15.6185 6.87055 15.3729 7.11597L13.7628 8.72475C13.614 8.87343 13.5742 9.09934 13.6631 9.28995L14.6259 11.3524C14.7728 11.667 14.5621 12.0319 14.2162 12.062L11.9487 12.2595C11.7391 12.2777 11.5634 12.4251 11.5091 12.6284L10.9209 14.8271C10.8311 15.1625 10.4352 15.3066 10.1509 15.1074L8.28695 13.8011C8.1147 13.6804 7.8853 13.6804 7.71305 13.8011L5.84911 15.1074C5.56477 15.3066 5.16887 15.1625 5.07914 14.8271L4.49094 12.6284C4.43658 12.4251 4.26086 12.2777 4.0513 12.2595L1.7838 12.062C1.43789 12.0319 1.22723 11.667 1.3741 11.3524L2.33686 9.28995C2.42583 9.09934 2.386 8.87343 2.2372 8.72476L0.627108 7.11597C0.381489 6.87055 0.454648 6.45565 0.769393 6.30904L2.83262 5.34796C3.0233 5.25914 3.13799 5.06048 3.11958 4.85094L2.92028 2.58359C2.88988 2.23771 3.21261 1.9669 3.54796 2.0569L5.74626 2.64689C5.94942 2.70142 6.16498 2.62296 6.28556 2.4506L7.59031 0.585609Z" fill="#34BEB2"/>
<path id="Vector" d="M10.1053 6.73682L7.29828 9.26313L5.89478 7.99997" stroke="white" stroke-width="1.3" stroke-linecap="round" stroke-linejoin="round"/>
</g>
</svg>
